<svg version="1.0" xmlns="http://www.w3.org/2000/svg"
 width="960.000000pt" height="538.000000pt" viewBox="0 0 960.000000 538.000000"
 >

<g transform="translate(0.000000,538.000000) scale(0.100000,-0.100000)"
fill="#000000" stroke="none">
<path d="M0 2690 l0 -2690 4800 0 4800 0 0 2690 0 2690 -4800 0 -4800 0 0
-2690z m720 2550 c0 -5 -5 -10 -11 -10 -5 0 -7 5 -4 10 3 6 8 10 11 10 2 0 4
-4 4 -10z m4948 -142 c-4 -27 -23 -34 -32 -13 -8 21 1 35 20 35 10 0 14 -8 12
-22z m-3628 -8 c0 -5 -4 -10 -10 -10 -5 0 -10 5 -10 10 0 6 5 10 10 10 6 0 10
-4 10 -10z m7090 -55 c0 -8 -7 -15 -15 -15 -16 0 -20 12 -8 23 11 12 23 8 23
-8z m-8172 -207 c-4 -29 -38 -38 -38 -10 0 22 8 32 27 32 9 0 13 -8 11 -22z
m4674 0 c-7 -7 -12 -8 -12 -2 0 14 12 26 19 19 2 -3 -1 -11 -7 -17z m2792
-261 c-24 -13 -41 8 -24 28 13 16 15 15 27 -1 11 -15 11 -20 -3 -27z m-5667
-103 c8 -22 -15 -43 -27 -24 -5 8 -10 21 -10 28 0 17 30 15 37 -4z m2513 -364
c0 -5 -5 -10 -11 -10 -5 0 -7 5 -4 10 3 6 8 10 11 10 2 0 4 -4 4 -10z m1710
-94 c0 -8 -5 -18 -11 -22 -14 -8 -33 11 -25 25 10 16 36 13 36 -3z m-4940 -41
c0 -13 -5 -27 -10 -30 -15 -9 -30 37 -18 52 14 18 28 6 28 -22z m1467 -291
c-9 -9 -28 6 -21 18 4 6 10 6 17 -1 6 -6 8 -13 4 -17z m1058 -14 c0 -22 -29
-18 -33 3 -3 14 1 18 15 15 10 -2 18 -10 18 -18z m4235 -433 c0 -8 -3 -17 -7
-20 -9 -9 -34 13 -27 24 8 14 34 11 34 -4z m-8252 -18 c-2 -6 -8 -10 -13 -10
-5 0 -11 4 -13 10 -2 6 4 11 13 11 9 0 15 -5 13 -11z m6406 -25 c22 -9 20 -47
-4 -69 -25 -22 -50 -6 -43 28 11 51 14 54 47 41z m-3564 -149 c0 -8 -7 -15
-15 -15 -8 0 -15 7 -15 15 0 8 7 15 15 15 8 0 15 -7 15 -15z m2120 -475 c0 -5
-4 -10 -10 -10 -5 0 -10 5 -10 10 0 6 5 10 10 10 6 0 10 -4 10 -10z m-4190
-156 c0 -8 -4 -12 -10 -9 -5 3 -10 10 -10 16 0 5 5 9 10 9 6 0 10 -7 10 -16z
m3210 -189 c16 -20 5 -45 -20 -45 -16 0 -20 7 -20 30 0 33 19 40 40 15z
m-1255 -204 c3 -5 1 -12 -5 -16 -5 -3 -10 1 -10 9 0 18 6 21 15 7z m-2813
-183 c-15 -15 -26 -4 -18 18 5 13 9 15 18 6 9 -9 9 -15 0 -24z m7092 -455 c4
-9 2 -21 -3 -26 -14 -14 -42 10 -34 29 7 19 29 18 37 -3z m-5194 -33 c13 -9
13 -11 0 -20 -22 -15 -30 -12 -30 10 0 22 8 25 30 10z m3600 -84 c0 -15 -18
-31 -26 -23 -7 7 7 37 17 37 5 0 9 -6 9 -14z m2959 -22 c3 -16 1 -17 -13 -5
-19 16 -21 34 -3 29 6 -3 14 -13 16 -24z m-7759 -438 c0 -20 -26 -40 -35 -26
-10 16 2 40 20 40 8 0 15 -6 15 -14z m3716 -120 c3 -8 2 -22 -3 -30 -8 -14
-12 -14 -28 -3 -11 9 -16 20 -12 31 8 20 36 21 43 2z"/>
</g>
</svg>
